PathFileType	4	(X/Y/Z)	/Users/niels/Desktop/University/Third Semester/Perception and Action/Exam/Gymnastics Motion Tracking/Code for Gym Tracking/Analyzed Data/Backflip/backflip_good_idn_2_Sports2D/backflip_good_idn_2_Sports2D_px_person00.trc
DataRate	CameraRate	NumFrames	NumMarkers	Units	OrigDataRate	OrigDataStartFrame	OrigNumFrames
59.762675296655885	59.762675296655885	12	22	m	59.762675296655885	0	278
Frame#	Time	Hip			RHip			RKnee			RAnkle			RBigToe			RSmallToe			RHeel			LHip			LKnee			LAnkle			LBigToe			LSmallToe			LHeel			Neck			Head			Nose			RShoulder			RElbow			RWrist			LShoulder			LElbow			LWrist		
		X1	Y1	Z1	X2	Y2	Z2	X3	Y3	Z3	X4	Y4	Z4	X5	Y5	Z5	X6	Y6	Z6	X7	Y7	Z7	X8	Y8	Z8	X9	Y9	Z9	X10	Y10	Z10	X11	Y11	Z11	X12	Y12	Z12	X13	Y13	Z13	X14	Y14	Z14	X15	Y15	Z15	X16	Y16	Z16	X17	Y17	Z17	X18	Y18	Z18	X19	Y19	Z19	X20	Y20	Z20	X21	Y21	Z21	X22	Y22	Z22
0	0.0	1.0601024750425632	-0.5830964030644177	0.0	1.0570334494451745	-0.5830946262256721	0.0	1.063349905169982	-0.6771443313399336	0.0	1.0413064354611106	-0.7649472457049034	0.0	1.0743975245825546	-0.7743048156357328	0.0	1.0664618504630636	-0.7758935546766919	0.0	1.0350313160068172	-0.7696025815346661	0.0	1.0584915339523975	-0.5830754314262572	0.0	1.0616803425721946	-0.6771109520836409	0.0	1.03970504518546	-0.7618036393182906	0.0	1.0711887802879314	-0.7727825521204242	0.0	1.0648308720285333	-0.7712236138565474	0.0	1.0287774561535517	-0.7696016069564364	0.0	1.0601546617436197	-0.44967375298731366	0.0	1.071165579416517	-0.3932713760828773	0.0	1.08529277599613	-0.4214642045654871	0.0	1.0570991358651254	-0.45755595879870475	0.0	1.0868782247370161	-0.39330066273078274	0.0	1.0885128512023614	-0.33687172977902347	0.0	1.0569245429993965	-0.4607545475307647	0.0	1.0820764592042187	-0.39645288539200074	0.0	1.0837177639007884	-0.5767730714197994	0.0
1	0.016732851985559564	1.0604206483296015	-0.5833802505659361	0.0	1.0575249019379693	-0.5832738588400906	0.0	1.0626331071361341	-0.6777718712392246	0.0	1.0411611830357688	-0.7657352841534855	0.0	1.0745813842042833	-0.7742760283050504	0.0	1.066606076895635	-0.7761712987794416	0.0	1.0351104787903418	-0.7704074781878456	0.0	1.0588155465024223	-0.5833155295671584	0.0	1.0614581558647438	-0.6776651751764552	0.0	1.0400399188620468	-0.7626109177692169	0.0	1.0722241033473363	-0.7731952011009802	0.0	1.0655813702886827	-0.7715293398181782	0.0	1.0288354966556958	-0.7702823149354997	0.0	1.0604608613882094	-0.44853880045120487	0.0	1.0705121036444722	-0.3937762695019626	0.0	1.0856948578692127	-0.42128020881450884	0.0	1.0574461294912094	-0.4572190745429389	0.0	1.0865108125343086	-0.3931550545070455	0.0	1.0880398005526124	-0.3364844147334071	0.0	1.0570207268100487	-0.4605326614308465	0.0	1.081703619536263	-0.4052455889809019	0.0	1.0833090536197818	-0.5495487419141664	0.0
2	0.03346570397111913	1.0607392770597024	-0.5836513827531671	0.0	1.0579937893600462	-0.5834392245093241	0.0	1.061931641148572	-0.6783797085707465	0.0	1.0410286158763944	-0.766478014016992	0.0	1.074738955466789	-0.7742581820081917	0.0	1.066722778556918	-0.7764406938530314	0.0	1.035193175785919	-0.7711838978007254	0.0	1.0591673976363731	-0.5835452353755441	0.0	1.0612691709776139	-0.6782027876997364	0.0	1.040383851095817	-0.7633687087811692	0.0	1.0732200256113733	-0.7735864064420893	0.0	1.0663379199473937	-0.7718221979399618	0.0	1.0289228865637194	-0.770935264985788	0.0	1.0607698006950415	-0.44747099161783227	0.0	1.069904285394853	-0.3942456766777397	0.0	1.0861091012168715	-0.42109265949222446	0.0	1.057768258950063	-0.4569146403079257	0.0	1.0861500411559768	-0.39300593025188985	0.0	1.0875592321941276	-0.3360975100358236	0.0	1.0571746397564075	-0.46031894936986273	0.0	1.081395339116471	-0.412592584377967	0.0	1.0829341130923367	-0.5224557733677367	0.0
3	0.05019855595667869	1.0610556126340027	-0.583890717394253	0.0	1.0584242311830232	-0.5835771525185194	0.0	1.0612639236596952	-0.6789497314648019	0.0	1.040918619486164	-0.7671404959792769	0.0	1.0748538515110448	-0.7742577899735611	0.0	1.066792142778752	-0.7766981439328126	0.0	1.0352815155607054	-0.7719150621493094	0.0	1.0595575197590172	-0.5837479893060362	0.0	1.0611299192742645	-0.6787046047460024	0.0	1.0407339004010516	-0.7640413729044241	0.0	1.0741455316488655	-0.7739444735526152	0.0	1.0670918176584074	-0.7720962200276444	0.0	1.0290548923743827	-0.771540663696912	0.0	1.0610761183167055	-0.4465191851484192	0.0	1.0693757454869481	-0.3946535397386064	0.0	1.086537760941724	-0.42089971957176764	0.0	1.0580492188354664	-0.4566633098071381	0.0	1.08579883762255	-0.3928548306925697	0.0	1.0870691597581175	-0.33571422712338345	0.0	1.0574115238444048	-0.4601199868865669	0.0	1.0811852911338935	-0.41769695738373513	0.0	1.0826117676157105	-0.4957519424676713	0.0
4	0.06693140794223826	1.0613636274790728	-0.5840807109126127	0.0	1.05880722593347	-0.5836767470989843	0.0	1.060647676512417	-0.6794650242539501	0.0	1.0408397917237244	-0.767700570067615	0.0	1.074914895803797	-0.7742791695937195	0.0	1.0668056963542782	-0.776942528768335	0.0	1.0353772073793575	-0.7725955942237175	0.0	1.0599831048429849	-0.5839098157015832	0.0	1.0610460688747525	-0.6791544102705126	0.0	1.0410825358896783	-0.7646099027634021	0.0	1.0749784430231313	-0.7742674508595097	0.0	1.0678306375481152	-0.7723473198538503	0.0	1.029232692936586	-0.772088694203299	0.0	1.061374779728768	-0.4457119382569627	0.0	1.0689426890436629	-0.3949865981196134	0.0	1.0869795570589427	-0.4207029265241247	0.0	1.0582779574634793	-0.4564747325216821	0.0	1.0854562440006965	-0.39270275778357605	0.0	1.0865692423450553	-0.3353358149035509	0.0	1.0577347293907065	-0.4599395029094911	0.0	1.0810779411883173	-0.42041381579853543	0.0	1.0823439159983448	-0.4696497636926282	0.0
5	0.08366425992779783	1.061655845270774	-0.5842134598998463	0.0	1.0591394264364986	-0.5837359383351506	0.0	1.0600967885346393	-0.6799127514156614	0.0	1.0407950755496005	-0.7681510176703481	0.0	1.0749167567026805	-0.7743231996702691	0.0	1.0667645847071454	-0.7771752719341697	0.0	1.0354802494224675	-0.7732249590252114	0.0	1.0604380564228468	-0.5840277749535003	0.0	1.061017798019515	-0.679541539391508	0.0	1.0414224779501369	-0.7650710725735113	0.0	1.0757058243459763	-0.7745573267811227	0.0	1.0685424416646934	-0.7725733026277197	0.0	1.029449634833504	-0.7725772029774816	0.0	1.0616639738374867	-0.44506245292969354	0.0	1.0686090466141063	-0.3952457047053547	0.0	1.087430821352437	-0.4205110141160878	0.0	1.058446027483884	-0.45635123570786096	0.0	1.085117582254674	-0.39255218217847	0.0	1.086063284949589	-0.33496410263253995	0.0	1.0581372216848366	-0.4597795169131859	0.0	1.081064082709695	-0.42087805892977426	0.0	1.082123332454939	-0.44429581428457043	0.0
6	0.10039711191335739	1.061927098927133	-0.5842897943854753	0.0	1.0594231518840416	-0.5837585041680167	0.0	1.0596194988322716	-0.6802859298233729	0.0	1.040781265388932	-0.7684959017135474	0.0	1.074856486499791	-0.7743871327183007	0.0	1.066675487827862	-0.7773989220358578	0.0	1.0355876214249555	-0.7738016174886214	0.0	1.0609155489599993	-0.5841083221006172	0.0	1.0610425494447586	-0.6798603433354677	0.0	1.0417478674781322	-0.7654316606186046	0.0	1.0763206688309752	-0.7748138461433475	0.0	1.0692143104860734	-0.7727723465998344	0.0	1.0296939861894097	-0.7730071890542887	0.0	1.0619430310329423	-0.4445731836821095	0.0	1.0683717921787437	-0.3954414197896467	0.0	1.087882249963055	-0.4203381322338386	0.0	1.0585481776657713	-0.4562903113730089	0.0	1.0847771338354655	-0.3924074923394118	0.0	1.0855575717326378	-0.3346006632807343	0.0	1.058605153119778	-0.45964080213273006	0.0	1.081130972352493	-0.4193988528680399	0.0	1.081940494364893	-0.420188036654137	0.0
7	0.11712996389891694	1.0621773585824443	-0.5843113709951204	0.0	1.0596667039964485	-0.5837458687641877	0.0	1.0592187506385766	-0.6805820783351358	0.0	1.040791418912313	-0.7687438099072339	0.0	1.074729968595921	-0.7744641297142586	0.0	1.0665461528688935	-0.777614883658081	0.0	1.035693032582455	-0.7743205626819553	0.0	1.0614062288089763	-0.584156540179739	0.0	1.0611151449058944	-0.6801074720930854	0.0	1.0420528736375227	-0.765699453452423	0.0	1.076817977636217	-0.775031559015708	0.0	1.0698292853903881	-0.7729406373329908	0.0	1.0299483153022506	-0.7733787663471706	0.0	1.0622073738165827	-0.44423910794151317	0.0	1.068220471750185	-0.3955870952646196	0.0	1.088314248455804	-0.4201985327601467	0.0	1.058585324087325	-0.45628600578028783	0.0	1.0844313639237892	-0.3922741064134556	0.0	1.0850569050118954	-0.3342458678894298	0.0	1.0591145535251922	-0.45952180776316204	0.0	1.0812621470644153	-0.4165380218098125	0.0	1.0817855072229	-0.39827155204282794	0.0
8	0.13386281588447652	1.0624107863832704	-0.5842761033556512	0.0	1.059879224226994	-0.583694027904208	0.0	1.0588918127827305	-0.6808015528380486	0.0	1.0408181345003589	-0.7689051898071962	0.0	1.0745337703071836	-0.7745456253827757	0.0	1.066384275164766	-0.7778232419352181	0.0	1.0357908018598692	-0.7747763968992731	0.0	1.0619001314182401	-0.5841695239142092	0.0	1.0612273461953128	-0.6802827326298643	0.0	1.0423335663218458	-0.765881307232718	0.0	1.0771947641856405	-0.7752032015094571	0.0	1.07036956794071	-0.7730733083770736	0.0	1.0301928407370056	-0.7736927205286701	0.0	1.0624465217967631	-0.44404952454738456	0.0	1.068136707874104	-0.39569414846330436	0.0	1.0886979898618694	-0.42010237784002513	0.0	1.0585632376488416	-0.45632871899244304	0.0	1.0840799401028887	-0.3921561443925767	0.0	1.084562352451652	-0.3338999799328958	0.0	1.05963431456768	-0.45941637694504267	0.0	1.0814362379255222	-0.41295884410192285	0.0	1.0816464790495033	-0.37941733609443795	0.0
9	0.1505956678700361	1.0626340509541765	-0.5841790149907746	0.0	1.060064117247428	-0.5835977229596585	0.0	1.0586282726496477	-0.680948334083337	0.0	1.0408561494706396	-0.7689952233351913	0.0	1.0742683850656762	-0.7746280325824509	0.0	1.0661976734349627	-0.7780260942404896	0.0	1.035880407595407	-0.7751705058211529	0.0	1.0623915234902417	-0.5841389552708243	0.0	1.0613680103020198	-0.680392326440922	0.0	1.042590494051194	-0.7659897782123201	0.0	1.0774519591741052	-0.7753279543838376	0.0	1.0708221850074262	-0.7731711982449144	0.0	1.0304124624797704	-0.7739571644771143	0.0	1.0626472813014518	-0.44398750014996363	0.0	1.068097730161322	-0.39577115305761496	0.0	1.0890031360612447	-0.4200549267896813	0.0	1.0584870611894361	-0.45640438615981593	0.0	1.083724325123124	-0.39205438119469777	0.0	1.0840714173104997	-0.33356488641801935	0.0	1.0601368381484162	-0.45931311097976235	0.0	1.081631701864525	-0.4091998534073113	0.0	1.0815111650646647	-0.3640346939421982	0.0
10	0.16732851985559566	1.0628557786267439	-0.5840152347182926	0.0	1.0602196974380824	-0.5834555784600378	0.0	1.058411186311371	-0.681031227971806	0.0	1.0409013131895457	-0.7690360934485002	0.0	1.0739384454783725	-0.7747150568829629	0.0	1.0659928550009405	-0.7782296890369275	0.0	1.0359655677577915	-0.7755145779242892	0.0	1.0628807432496836	-0.5840566099664248	0.0	1.0615248126191275	-0.6804484597104098	0.0	1.0428261000322088	-0.7660461090979285	0.0	1.077595887870917	-0.7754148764698556	0.0	1.0711796600812842	-0.7732455907767092	0.0	1.0306002397983995	-0.7741894464909792	0.0	1.0627982117346526	-0.4440304084429342	0.0	1.06808135077812	-0.3958248522745425	0.0	1.089205683574007	-0.42005730383818746	0.0	1.0583593092520558	-0.45649601097874637	0.0	1.0833658520560079	-0.39196746260048027	0.0	1.0835795790014158	-0.333243922791322	0.0	1.0606045824796801	-0.4591984744608668	0.0	1.0818325178767678	-0.40561959872640146	0.0	1.081371806428672	-0.3521069009643106	0.0
11	0.1840613718411552	1.0630845536319153	-0.5837844542610675	0.0	1.0603454234884433	-0.583271504105124	0.0	1.0582238495295622	-0.6810641032701975	0.0	1.0409471215876007	-0.7690544696040887	0.0	1.0735514729247368	-0.7748117291311504	0.0	1.065773405449791	-0.7784414146411328	0.0	1.036048903721577	-0.7758264826998075	0.0	1.0633705339733521	-0.5839191551544993	0.0	1.0616861027148865	-0.680466928724073	0.0	1.0430391201014486	-0.7660753584806115	0.0	1.0776399307138713	-0.7754785472370739	0.0	1.0714383504853016	-0.773313957473571	0.0	1.030754447343927	-0.7744102407843415	0.0	1.0628929707522665	-0.44415193969122724	0.0	1.0680711407209376	-0.3958604949012118	0.0	1.089293058454503	-0.42010467479322033	0.0	1.0581846529791556	-0.45658607392847356	0.0	1.0830070292650782	-0.39189282764305816	0.0	1.0830819774964866	-0.3329383622070382	0.0	1.0610272534393153	-0.4590611944573382	0.0	1.0820278491381004	-0.4024308267487898	0.0	1.0812260871748673	-0.343342755590954	0.0
